<?xml version="1.0" standalone="no"?>
<!DOCTYPE svg PUBLIC "-//W3C//DTD SVG 20010904//EN"
 "http://www.w3.org/TR/2001/REC-SVG-20010904/DTD/svg10.dtd">
<svg version="1.0" xmlns="http://www.w3.org/2000/svg"
 width="270.000000pt" height="257.000000pt" viewBox="0 0 270.000000 257.000000"
 preserveAspectRatio="xMidYMid meet">

<g transform="translate(0.000000,257.000000) scale(0.100000,-0.100000)"
fill="#000000" stroke="none">
<path d="M673 2563 c372 -2 982 -2 1355 0 372 1 67 2 -678 2 -745 0 -1050 -1
-677 -2z"/>
<path d="M1158 2191 c-173 -57 -284 -185 -325 -375 -16 -74 -16 -83 1 -164 23
-113 55 -174 135 -252 126 -126 280 -167 437 -119 333 103 441 516 204 782
-40 44 -71 67 -138 99 -78 38 -96 42 -172 45 -63 2 -100 -2 -142 -16z m274
-124 c100 -49 174 -153 199 -280 21 -102 -27 -246 -107 -321 -16 -15 -58 -41
-94 -59 -58 -29 -73 -32 -150 -31 -69 0 -95 5 -140 26 -72 33 -139 99 -176
173 -26 53 -29 69 -28 155 1 175 70 283 222 347 79 33 194 29 274 -10z"/>
<path d="M889 1316 c-156 -83 -277 -206 -358 -366 -57 -111 -84 -192 -106
-311 -25 -136 -7 -159 135 -178 47 -7 123 -18 170 -26 407 -67 765 -68 1138
-4 207 36 239 46 265 81 19 25 19 32 8 113 -12 90 -55 224 -99 310 -71 141
-206 289 -328 361 -104 61 -110 62 -129 18 -8 -20 -15 -42 -15 -50 0 -7 39
-36 87 -65 141 -85 249 -211 313 -366 39 -93 76 -241 63 -254 -5 -5 -92 -22
-193 -39 -159 -26 -221 -31 -445 -36 -306 -7 -491 4 -709 42 l-158 28 5 51 c8
76 62 230 109 310 67 114 193 231 319 296 41 22 42 23 18 86 -13 34 -23 34
-90 -1z"/>
</g>
</svg>
