<?xml version="1.0" standalone="no"?>
<!DOCTYPE svg PUBLIC "-//W3C//DTD SVG 20010904//EN"
 "http://www.w3.org/TR/2001/REC-SVG-20010904/DTD/svg10.dtd">
<svg version="1.0" xmlns="http://www.w3.org/2000/svg"
 width="1024.000000pt" height="1024.000000pt" viewBox="0 0 1024.000000 1024.000000"
 preserveAspectRatio="xMidYMid meet">

<g transform="translate(0.000000,1024.000000) scale(0.100000,-0.100000)"
fill="#000000" stroke="none">
<path d="M3470 7633 c-53 -5 -231 -34 -246 -40 -12 -4 -14 -143 -14 -827 0
-874 5 -1015 46 -1216 118 -589 508 -1094 1040 -1346 267 -128 520 -184 829
-184 495 0 935 172 1294 507 258 240 461 579 545 910 62 242 60 205 63 1219
l4 931 -76 16 c-178 40 -402 44 -576 11 -359 -67 -697 -325 -839 -638 -17 -37
-42 -108 -57 -159 -26 -91 -26 -96 -32 -522 l-6 -430 -33 -67 c-18 -36 -49
-81 -69 -99 -163 -142 -415 -94 -510 99 l-28 57 -6 425 c-6 462 -7 469 -73
642 -119 317 -430 582 -790 673 -147 37 -327 52 -466 38z m211 -1023 l5 -835
27 -121 c72 -327 222 -591 452 -796 223 -200 440 -304 735 -353 126 -21 401
-16 514 10 390 88 709 309 925 640 97 148 161 305 203 501 21 96 22 124 25
948 l4 849 124 -6 c69 -3 129 -9 135 -12 14 -9 13 -1528 0 -1666 -47 -465
-244 -846 -597 -1154 -392 -343 -936 -482 -1465 -375 -588 120 -1086 564
-1272 1135 -91 279 -98 373 -94 1310 l3 750 45 6 c25 4 86 6 135 5 l90 -1 6
-835z m284 779 c39 -12 96 -35 127 -50 l57 -29 3 -762 3 -763 28 -100 c30
-112 86 -235 146 -324 90 -132 262 -270 419 -335 137 -58 209 -71 382 -70 186
1 264 18 415 93 230 114 410 313 495 549 59 162 60 183 60 983 l0 728 83 40
c45 22 101 45 124 52 80 23 74 97 70 -813 -4 -884 -3 -870 -63 -1050 -61 -186
-163 -349 -308 -493 -245 -242 -543 -367 -876 -367 -198 -1 -365 37 -545 121
-127 60 -222 127 -331 235 -184 184 -294 387 -357 661 -20 86 -21 124 -24 907
-3 667 -2 817 9 814 7 -3 45 -14 83 -27z m468 -334 c33 -44 77 -116 97 -160
69 -146 73 -180 80 -650 6 -399 7 -423 28 -479 77 -209 263 -338 485 -338 102
0 161 14 240 53 115 59 216 181 258 314 8 28 14 169 19 470 8 489 8 491 90
660 33 67 69 122 109 165 l59 65 7 -75 c3 -41 5 -347 3 -680 -4 -591 -5 -607
-27 -679 -66 -220 -216 -399 -416 -496 -121 -60 -203 -78 -345 -78 -135 -1
-216 17 -335 73 -204 95 -340 255 -412 485 l-28 90 -3 684 c-3 780 -13 716 91
576z"/>
<path d="M6100 3288 c0 -227 4 -440 10 -472 19 -116 82 -166 208 -166 l72 0 0
45 0 45 -55 0 c-46 0 -60 4 -87 29 l-33 29 -3 451 -3 451 -54 0 -55 0 0 -412z"/>
<path d="M7115 3168 l0 -513 52 -3 52 -3 3 238 c3 233 4 240 29 288 15 30 42
62 68 80 38 27 51 30 115 30 62 0 78 -4 113 -27 73 -48 78 -69 81 -355 l3
-253 49 0 c33 0 50 4 50 13 4 144 -3 511 -10 538 -28 102 -139 179 -258 179
-89 0 -136 -16 -193 -68 l-49 -44 0 206 0 206 -53 0 -52 0 0 -512z"/>
<path d="M2460 3308 c0 -357 3 -387 53 -484 33 -66 113 -137 182 -163 78 -29
186 -36 267 -17 125 29 211 104 260 224 22 55 23 70 26 415 l3 357 -88 0 -88
0 0 -333 0 -332 -26 -56 c-30 -63 -63 -91 -128 -109 -95 -25 -195 13 -246 94
l-30 49 -3 344 -3 343 -89 0 -90 0 0 -332z"/>
<path d="M3480 3145 l0 -495 55 0 55 0 0 225 0 225 265 0 265 0 0 -225 0 -225
55 0 55 0 0 495 0 495 -55 0 -55 0 0 -225 0 -225 -265 0 -265 0 0 225 0 225
-55 0 -55 0 0 -495z"/>
<path d="M6567 3480 l6 -110 -77 0 -76 0 0 -40 0 -39 73 -3 72 -3 5 -250 c5
-244 6 -251 30 -295 15 -27 40 -53 65 -67 45 -25 143 -39 204 -28 41 7 41 7
41 49 l0 43 -74 -1 c-61 -1 -80 3 -103 20 -54 40 -58 59 -61 307 l-3 227 121
0 121 0 -3 38 -4 37 -117 3 -117 3 0 109 0 110 -54 0 -55 0 6 -110z"/>
<path d="M4663 3362 c-93 -33 -160 -96 -207 -192 -29 -60 -31 -73 -31 -170 0
-93 3 -112 26 -161 34 -72 96 -134 168 -168 49 -23 68 -26 161 -26 94 0 111 3
161 28 52 25 139 104 139 126 0 5 -14 18 -32 28 l-32 19 -29 -33 c-68 -77
-199 -108 -299 -70 -81 31 -158 136 -158 216 0 21 0 21 305 21 l305 0 0 34 c0
53 -19 137 -40 181 -27 55 -94 121 -155 153 -68 35 -204 42 -282 14z m235 -98
c29 -14 64 -41 78 -60 28 -36 57 -121 50 -141 -4 -10 -61 -13 -251 -13 l-247
0 7 33 c11 49 20 68 53 113 67 91 204 121 310 68z"/>
<path d="M5457 3370 c-37 -10 -137 -56 -137 -65 0 -2 7 -20 16 -39 l17 -34 52
23 c134 60 249 54 327 -14 l43 -39 4 -86 c3 -85 -3 -102 -29 -71 -6 8 -37 24
-68 35 -82 31 -216 26 -287 -11 -124 -65 -166 -215 -91 -329 13 -19 47 -49 77
-65 50 -28 61 -30 159 -30 98 0 109 2 159 30 30 16 59 38 65 47 13 21 28 24
25 6 -1 -7 -1 -28 0 -45 1 -32 2 -33 46 -33 l46 0 -3 289 -3 289 -30 44 c-21
28 -50 53 -90 73 -52 27 -69 30 -159 32 -56 1 -118 -2 -139 -7z m202 -362 c56
-15 121 -74 121 -112 0 -38 -22 -77 -69 -119 -124 -112 -341 -49 -341 99 0 68
62 127 150 144 38 8 72 5 139 -12z"/>
</g>
</svg>
